#!OML:ASF F:\VICON\USERDATA\INSTALL\rory3\rory3.ASF
:FULLY-SPECIFIED
:DEGREES
3264
root 7.85974 18.765 3.00116 -157.99 -68.1538 167.62
lowerback 14.3526 2.25867 1.84646
upperback 6.58149 2.81503 3.3373
thorax -1.17256 1.18994 2.02458
lowerneck 1.45991 -13.6421 -6.93912
upperneck 25.6442 -22.5989 8.57603
head 9.70687 -10.8219 1.98776
rclavicle 7.95139e-015 -9.54166e-015
rhumerus -7.13933 23.5731 -85.6043
rradius 49.0077
rwrist 23.6211
rhand -56.0826 5.87361
rfingers 7.12502
rthumb -28.4151 -21.9892
lclavicle 7.95139e-015 -9.54166e-015
lhumerus -28.3491 -17.8275 83.2752
lradius 126.299
lwrist 51.9586
lhand -11.9143 15.7779
lfingers 7.12502
lthumb 14.1396 45.2768
rfemur -21.0865 8.54924 4.5684
rtibia 43.0273
rfoot -16.2533 -17.5088
rtoes 0.806411
lfemur -26.6361 11.2591 -27.0782
ltibia 23.3158
lfoot -5.19016 11.0463
ltoes -4.92258
3265
root 7.87322 18.7758 2.99078 -158.265 -67.6841 167.494
lowerback 14.4482 2.38549 1.00378
upperback 6.75743 2.85801 3.4767
thorax -1.0901 1.18635 2.63894
lowerneck 1.53457 -13.7364 -7.17144
upperneck 25.6462 -22.7301 8.54026
head 9.73053 -10.9064 1.99562
rclavicle 7.15625e-015 -9.54166e-015
rhumerus -7.59333 22.8899 -85.1813
rradius 48.843
rwrist 23.8107
rhand -56.1008 6.29112
rfingers 7.12502
rthumb -28.4325 -21.5688
lclavicle 7.15625e-015 -9.54166e-015
lhumerus -28.4355 -18.4197 84.1925
lradius 125.692
lwrist 51.586
lhand -11.9637 15.5563
lfingers 7.12502
lthumb 14.092 45.0585
rfemur -20.9246 8.81128 4.5489
rtibia 43.7726
rfoot -15.9984 -17.7468
rtoes 1.9332
lfemur -26.0391 11.4984 -27.0951
ltibia 23.0745
lfoot -5.32338 11.2478
ltoes -4.01685
3266
root 7.88455 18.7751 2.99906 -158.592 -67.6211 167.731
lowerback 14.3126 2.34519 0.778355
upperback 6.80769 2.76908 3.62613
thorax -0.979671 1.13279 2.94137
lowerneck 1.59392 -13.8354 -7.31951
upperneck 25.6976 -22.8673 8.44095
head 9.7574 -10.9905 1.96891
rclavicle -8.18993e-014 -1.27222e-014
rhumerus -8.10563 22.1963 -84.7315
rradius 48.6907
rwrist 23.7803
rhand -55.9032 7.69736
rfingers 7.12502
rthumb -28.2437 -20.1939
lclavicle -8.18993e-014 -1.27222e-014
lhumerus -28.5556 -19.1058 85.0481
lradius 125.172
lwrist 51.4272
lhand -11.9724 15.6712
lfingers 7.12502
lthumb 14.0836 45.174
rfemur -20.9573 8.71584 4.6354
rtibia 44.3679
rfoot -16.0223 -17.6169
rtoes 4.02088
lfemur -25.7621 11.2131 -26.9057
ltibia 22.7653
lfoot -5.30371 11.5847
ltoes -3.17921
3267
root 7.89581 18.7757 3.01001 -158.877 -67.5754 168.011
lowerback 14.1411 2.25095 0.72633
upperback 6.86259 2.62897 3.69846
thorax -0.829534 1.05823 3.07348
lowerneck 1.48007 -13.9053 -7.39376
upperneck 25.837 -22.9681 8.32298
head 9.83222 -11.0427 1.91284
rclavicle 3.10104e-014 3.33958e-014
rhumerus -8.55014 21.7512 -84.3063
rradius 48.5138
rwrist 23.5688
rhand -55.9688 8.45619
rfingers 7.12502
rthumb -28.3064 -19.4247
lclavicle 3.10104e-014 3.33958e-014
lhumerus -28.5413 -19.7739 85.7864
lradius 124.585
lwrist 51.4512
lhand -11.7676 15.734
lfingers 7.12502
lthumb 14.2809 45.2229
rfemur -21.0569 8.59189 4.73487
rtibia 44.8478
rfoot -15.9346 -17.5464
rtoes 5.04152
lfemur -25.5751 10.9428 -26.7475
ltibia 22.4285
lfoot -5.12457 11.8827
ltoes -3.39249
3268
root 7.90995 18.7959 2.97985 -159.852 -66.7889 168.555
lowerback 14.3929 2.50129 -0.0470146
upperback 7.0477 2.84213 3.77059
thorax -0.820832 1.13646 3.55124
lowerneck 1.40399 -13.9539 -7.37092
upperneck 25.9174 -23.0479 8.25882
head 9.87195 -11.0782 1.86947
rclavicle 2.94201e-014 -1.11319e-014
rhumerus -8.98839 21.2339 -84.079
rradius 48.1903
rwrist 23.4206
rhand -56.1776 9.25688
rfingers 7.12502
rthumb -28.506 -18.5908
lclavicle 2.94201e-014 -1.11319e-014
lhumerus -28.6277 -20.4583 86.5659
lradius 123.97
lwrist 51.3176
lhand -11.9408 15.7453
lfingers 7.12502
lthumb 14.1141 45.2459
rfemur -20.7811 9.33557 4.96092
rtibia 45.2027
rfoot -15.5287 -18.029
rtoes 4.88524
lfemur -24.7711 11.7051 -26.5493
ltibia 22.0638
lfoot -5.10575 11.9325
ltoes -3.68588
3269
root 7.92188 18.8078 2.98088 -159.575 -66.6886 168.203
lowerback 14.2631 2.39206 -0.315294
upperback 7.06143 2.66494 3.72484
thorax -0.736366 1.04362 3.6857
lowerneck 1.36644 -13.9868 -7.4108
upperneck 26.0252 -23.1236 8.22614
head 9.92647 -11.1165 1.84695
rclavicle 5.56597e-014 8.74653e-014
rhumerus -9.50455 20.795 -83.8361
rradius 47.917
rwrist 23.1296
rhand -56.5157 8.48543
rfingers 7.12502
rthumb -28.8289 -19.3076
lclavicle 5.56597e-014 8.74653e-014
lhumerus -28.7516 -21.1888 87.4131
lradius 123.298
lwrist 51.0277
lhand -12.4842 15.6319
lfingers 7.12502
lthumb 13.5904 45.1683
rfemur -20.7604 9.23773 4.90711
rtibia 45.4607
rfoot -14.9462 -18.5541
rtoes 4.80707
lfemur -24.4957 11.4885 -26.6477
ltibia 21.6783
lfoot -5.01081 12.2357
ltoes -3.28442
3270
root 7.9401 18.812 2.98429 -158.937 -66.6899 167.58
lowerback 14.1133 2.21133 -0.613758
upperback 7.02085 2.39781 3.662
thorax -0.690991 0.908697 3.83178
lowerneck 1.32443 -14.0102 -7.46858
upperneck 26.0919 -23.172 8.1906
head 9.96574 -11.1449 1.82999
rclavicle -1.59028e-015 3.18055e-015
rhumerus -10.0102 20.4301 -83.5818
rradius 47.647
rwrist 23.0658
rhand -56.8386 6.59886
rfingers 7.12502
rthumb -29.1374 -21.1412
lclavicle -1.59028e-015 3.18055e-015
lhumerus -28.843 -21.7914 88.2064
lradius 122.631
lwrist 50.7853
lhand -12.6195 15.4495
lfingers 7.12502
lthumb 13.4599 44.9946
rfemur -20.8229 9.36623 4.64828
rtibia 45.5674
rfoot -14.5524 -19.0345
rtoes 5.33518
lfemur -24.4216 11.0512 -26.8531
ltibia 21.3342
lfoot -4.79553 12.5835
ltoes -3.12306
3271
root 7.95729 18.8139 2.99257 -159.096 -66.7934 167.788
lowerback 14.018 2.00843 -0.372938
upperback 6.99118 2.16131 3.61652
thorax -0.643949 0.797834 3.68377
lowerneck 1.22122 -14.1246 -7.16048
upperneck 26.0343 -23.2652 7.94722
head 9.90095 -11.1791 1.69507
rclavicle -3.65764e-014 1.27222e-014
rhumerus -10.4055 19.7045 -83.4188
rradius 47.23
rwrist 22.7921
rhand -56.9974 5.93051
rfingers 7.12502
rthumb -29.289 -21.7832
lclavicle -3.65764e-014 1.27222e-014
lhumerus -28.9609 -22.5222 88.9527
lradius 121.941
lwrist 50.6136
lhand -12.572 15.4131
lfingers 7.12502
lthumb 13.5057 44.9552
rfemur -20.8199 9.57266 4.73606
rtibia 45.533
rfoot -14.196 -19.5422
rtoes 4.73304
lfemur -24.4117 10.49 -26.6467
ltibia 21.1607
lfoot -4.68499 12.9942
ltoes -2.93513
3272
root 7.96738 18.8221 2.99948 -160.005 -66.9242 168.79
lowerback 13.7994 1.83749 0.188136
upperback 7.02884 1.99332 3.65326
thorax -0.458017 0.722245 3.43319
lowerneck 1.19247 -14.1879 -7.02421
upperneck 25.905 -23.3325 7.94664
head 9.84795 -11.2009 1.67097
rclavicle -1.98785e-014 -1.11319e-014
rhumerus -10.7776 19.2446 -83.2659
rradius 46.7919
rwrist 21.3759
rhand -57.7798 5.99316
rfingers 7.12502
rthumb -30.0358 -21.5876
lclavicle -1.98785e-014 -1.11319e-014
lhumerus -29.0177 -23.3513 89.7283
lradius 121.271
lwrist 50.3728
lhand -12.8933 15.4874
lfingers 7.12502
lthumb 13.196 45.0498
rfemur -20.7182 9.73686 5.23132
rtibia 45.3345
rfoot -13.5289 -20.367
rtoes 2.08652
lfemur -24.4648 9.96244 -26.0711
ltibia 21.189
lfoot -4.67106 13.4068
ltoes -2.68128
